<?xml version="1.0" encoding="UTF-8"?><svg id="Layer_2" xmlns="http://www.w3.org/2000/svg" xmlns:xlink="http://www.w3.org/1999/xlink" viewBox="0 0 132.08 132.6"><defs><style>.cls-1{clip-path:url(#clippath);}.cls-2{fill:none;}.cls-2,.cls-3,.cls-4,.cls-5,.cls-6,.cls-7{stroke-width:0px;}.cls-3{fill:#8cc63f;}.cls-4{fill:#c3996b;}.cls-5{fill:#faaf40;}.cls-6{fill:#00bff2;}.cls-7{fill:#fff;}</style><clipPath id="clippath"><rect class="cls-2" width="132.08" height="132.6"/></clipPath></defs><g id="Layer_1-2"><g class="cls-1"><path class="cls-7" d="M20.4,66.26c0,25.12,20.36,45.48,45.48,45.48s45.49-20.36,45.49-45.48-20.36-45.49-45.49-45.49-45.48,20.36-45.48,45.49M112.03,48.26l6.85-2.49-6.05,4.69.75,2.07,12.8-4.65-.74-2.04-6.85,2.49,6.04-4.69-.75-2.07-12.8,4.65.74,2.04ZM5.17,58.15c1.04.66,2.56,1.18,4.67,1.56,1.02.19,2.34.4,3.52.4h0c2.42,0,3.77-.91,4.11-2.77.25-1.37-.29-2.5-1.62-3.35-1.04-.66-2.57-1.17-4.67-1.56-1.02-.19-2.35-.4-3.53-.4-2.42,0-3.76.9-4.1,2.76-.25,1.38.29,2.51,1.62,3.36ZM5.6,55.16c.08-.41.35-.83,1.81-.83.75,0,1.71.11,2.94.34,1.89.35,3.09.66,3.91,1.01,1.16.51,1.22.97,1.17,1.28-.04.21-.15.84-1.88.84-.75,0-1.7-.11-2.99-.35-3.45-.63-5.11-1.4-4.95-2.29ZM19.03,50.27l-5.67-2.07.02-.06,6.5-.2.88-2.42-6.93.35c0-1.59-1.23-2.77-2.44-3.21-.53-.19-1.05-.29-1.55-.29-1.52,0-2.75.89-3.3,2.38l-1.09,2.98,12.79,4.66.78-2.13ZM11.49,47.51l-3.37-1.23.14-.38c.28-.77.83-1.2,1.54-1.2.22,0,.45.04.68.13.66.24,1.03.56,1.18,1.01.13.41.08.96-.16,1.67ZM16.42,64.69l-6.21-.21.1-2.97-1.99-.07-.1,2.97-3.41-.11.1-2.97-1.99-.07-.18,5.23,13.61.46.08-2.26ZM115.47,67.49l1.99-.07-.1-2.97,4.22-.14.1,2.97,1.99-.07-.1-2.97,3.41-.11.1,2.97,2-.07-.17-5.23-13.61.45.17,5.23ZM106.39,37.79l12.4-6.13-1.35-1.83-7.26,3.88,5.8-5.85-1.41-1.9-9.44,10.15,1.25,1.69ZM77.87,12.04l.06.02.95,6.43,2.5.6-1.15-6.84c1.58-.18,2.61-1.55,2.91-2.8.26-1.1.14-2.12-.34-2.95-.47-.81-1.29-1.39-2.29-1.63l-3.09-.74-3.16,13.25,2.2.53,1.4-5.87ZM79.17,6.6l.4.09c1.06.25,1.57,1.05,1.32,2.08-.24,1-.73,1.43-1.64,1.43-.27,0-.57-.04-.92-.11l.83-3.49ZM114.33,57.4c.33,1.81,1.38,2.72,3.12,2.72.36,0,.75-.04,1.17-.12l9.98-1.82-.41-2.23-9.96,1.82c-.24.04-.46.07-.66.07-.7,0-1.09-.27-1.19-.82-.08-.41.04-.73.35-.97.25-.19.62-.33,1.1-.42l9.96-1.82-.41-2.23-9.97,1.82c-2.48.45-3.49,1.76-3.08,3.99ZM53.69,18.3l-1.51-6.03,2.88-.72-.49-1.94-2.88.72-.83-3.31,2.88-.72-.49-1.93-5.08,1.28,3.32,13.21,2.19-.55ZM110.79,45.22l1.75-.95-1.42-2.61,3.71-2.01,1.42,2.61,1.75-.95-1.42-2.61,3-1.63,1.42,2.61,1.75-.95-2.5-4.6-11.97,6.5,2.5,4.6ZM90.59,23.37l3.22-5.31,1.88,1.14-3.22,5.31,1.94,1.17,7.06-11.64-1.94-1.17-2.8,4.62-1.88-1.14,2.81-4.62-1.94-1.17-7.06,11.64,1.94,1.17ZM69.27,17.17c.13,0,.25.01.37.01,1.97,0,3.05-1.19,3.21-3.53l.68-10.12-2.26-.15-.68,10.1c-.08,1.11-.46,1.65-1.18,1.6-.42-.03-.7-.22-.85-.58-.12-.29-.17-.68-.14-1.17l.68-10.1-2.26-.15-.68,10.12c-.17,2.52.85,3.81,3.11,3.96ZM85.61,20.86l4.35-10.68,2.16.88.79-1.93-6.41-2.61-.79,1.93,2.16.88-4.35,10.68,2.1.85ZM34.03,27.91h0c.67,0,1.32-.24,1.95-.72,2.63-2.01.47-5.45-1.38-7.86-1.63-2.12-3.39-4.08-5.3-4.08-.66,0-1.31.24-1.93.71-2.64,2.02-.49,5.46,1.36,7.87,1.62,2.12,3.39,4.08,5.31,4.08ZM28.63,17.61c.16-.12.31-.18.49-.18.72,0,1.82.98,3.36,3,1.63,2.12,3.16,4.39,2.23,5.1-.14.11-.3.16-.47.16-1,0-2.46-1.75-3.47-3.07-2.13-2.78-2.85-4.47-2.13-5.02ZM26.08,36.85l-4.91-3.81,1.35-1.74,4.91,3.81,1.39-1.79-10.76-8.34-1.39,1.79,4.27,3.31-1.35,1.74-4.27-3.31-1.39,1.79,10.76,8.34,1.39-1.79ZM11.82,37.94l10.11,5.55,1.09-1.98-10.11-5.55,1.12-2.04-1.83-1-3.33,6.07,1.83,1,1.12-2.04ZM99.76,30.13l2.3-1.55,1.77,1.79-1.57,2.28,1.67,1.68,7.52-11.76-1.53-1.55-11.69,7.54,1.54,1.55ZM107.66,24.82l-2.72,3.96-1.27-1.28,3.99-2.69ZM60.63,17.31h0c.13,0,.27,0,.41-.02,1.39-.14,2.32-.97,2.77-2.49.35-1.18.42-2.79.21-4.92-.36-3.64-1.12-7-4.37-6.68-3.31.32-3.3,4.38-3,7.41.34,3.48,1.06,6.7,3.97,6.7ZM59.87,5.28s.07,0,.11,0c.53,0,1.29.46,1.68,4.43.26,2.66.37,5.39-.81,5.51-1.21.11-1.6-2.38-1.81-4.55-.34-3.49-.06-5.3.84-5.39ZM41.69,23.08l-3.41-6.44,5.48,5.34,1.95-1.03-6.38-12.03-1.92,1.02,3.41,6.44-5.48-5.34-1.95,1.03,6.38,12.03,1.92-1.02ZM10.47,84.69l6.25-.79-.25-.82-4.36.67v-.02s4.01-1.81,4.01-1.81l-.26-.86-4.34.74v-.02s4-1.83,4-1.83l-.26-.86-5.63,2.82.24.78,4.38-.68v.02s-4.01,1.87-4.01,1.87l.24.78ZM15.17,88.32c1.49-.6,2.94-1.34,2.39-2.72-.5-1.24-2.02-.96-3.61-.33-1.49.6-2.94,1.34-2.39,2.73.5,1.24,2.02.95,3.61.32ZM14.17,86.16c1.82-.73,2.51-.69,2.68-.27.15.38-.08.82-1.82,1.52-1.47.59-2.5.87-2.73.3-.23-.58.71-1.08,1.88-1.55ZM14.14,93.36l2.12-2.43c.48.55,1.28.56,1.85.29.93-.45,1.24-1.34.83-2.19l-.61-1.25-5.58,2.71.38.77,2.56-1.24.09.18-2.06,2.26.43.89ZM18.05,88.87l.13.27c.27.55.05,1.01-.41,1.24-.65.32-1.06.08-1.43-.68l1.71-.83ZM16.22,97l2.06-3.02,3.26-.17-.46-.8-3.11.23v-.02s2.42-1.41,2.42-1.41l-.43-.74-5.37,3.11.43.74,2.68-1.55h0s-1.97,2.8-1.97,2.8l.48.83ZM22.42,95.13l-.47-.72-5.2,3.39.47.72,5.19-3.39ZM19.67,101.95l5-3.67-.48-.66-3.17,2.32h0s2.42-3.36,2.42-3.36l-.51-.69-5,3.67.48.66,3.17-2.32h0s-2.42,3.36-2.42,3.36l.51.69ZM24.59,103.4l.55-.46-1.12-1.33-.59.5.57.67c-1.01.81-1.74,1.27-2.12.82-.4-.48.33-1.25,1.29-2.06,1.5-1.27,2.17-1.45,2.45-1.11.23.28.1.64-.29,1.07l.78.44c.49-.67.66-1.35.1-2.01-.87-1.02-2.22-.27-3.53.84-1.22,1.03-2.37,2.2-1.4,3.34.85,1,2.17.26,3.31-.71ZM29.39,104.62l.79.76.54-.56-2.19-2.12-.54.56.79.76-3.78,3.9.62.6,3.78-3.9ZM27.87,110.74c1.01.87,2.23-.09,3.34-1.39,1.04-1.22,1.98-2.55.86-3.52-1.02-.87-2.24.08-3.35,1.38-1.04,1.22-1.99,2.55-.85,3.52ZM29.32,107.9c1.28-1.49,1.91-1.77,2.25-1.48.31.27.31.77-.91,2.19-1.03,1.2-1.82,1.93-2.28,1.53-.47-.41.13-1.29.95-2.24ZM31.15,113.35c1.06.78,2.17-.25,3.06-1.45l.43-.58-1.4-1.03-.46.62.7.52c-.79,1.02-1.41,1.63-1.88,1.29-.5-.37.04-1.3.78-2.31,1.17-1.58,1.78-1.91,2.13-1.64.29.22.25.6-.03,1.11l.86.25c.32-.77.33-1.47-.36-1.98-1.08-.8-2.22.24-3.24,1.62-.95,1.29-1.8,2.69-.6,3.57ZM36.87,113.55l.4-.62-1.18-.76.98-1.52,1.18.76.4-.62-1.9-1.23-3.37,5.21,1.9,1.23.4-.61-1.17-.76,1.19-1.84,1.17.76ZM40.21,112.59l.95.54.38-.68-2.65-1.51-.38.68.95.54-2.68,4.72.75.43,2.68-4.72ZM41.98,119.57l2.69-5.59-.77-.37-1.1,2.3-1.12-.54,1.1-2.3-.77-.37-2.69,5.59.77.37,1.27-2.64,1.12.54-1.27,2.64.77.37ZM46.25,118.17l.28-.68-1.3-.52.68-1.68,1.3.52.28-.68-2.09-.85-2.33,5.75,2.09.85.28-.68-1.3-.53.82-2.03,1.3.53ZM50.35,117.9c.33-.98-.09-1.82-.98-2.12l-1.32-.44-1.96,5.89.82.27.9-2.7.19.06.18,3.06.94.31-.25-3.21c.73.04,1.29-.52,1.49-1.12ZM49.51,117.56c-.23.69-.68.81-1.48.55l.6-1.8.28.09c.58.19.76.67.6,1.16ZM55.48,118.18l.16-.71-2.2-.49-1.36,6.05.84.19.64-2.85,1.37.31.16-.71-1.37-.31.4-1.77,1.37.31ZM56.65,124.05c1.32.21,1.85-1.24,2.12-2.93.25-1.58.36-3.21-1.11-3.44-1.32-.21-1.86,1.24-2.13,2.93-.25,1.58-.36,3.21,1.12,3.45ZM56.4,120.88c.31-1.94.7-2.51,1.14-2.44.41.06.67.49.37,2.35-.25,1.56-.54,2.59-1.14,2.5-.62-.1-.57-1.16-.37-2.41ZM62.76,120.09c.09-1.03-.52-1.75-1.45-1.83l-1.39-.12-.53,6.18.86.08.25-2.83.2.02.89,2.93.98.08-1-3.07c.72-.13,1.14-.81,1.19-1.44ZM61.87,119.95c-.06.72-.47.95-1.31.88l.16-1.89.29.03c.6.05.9.48.85.99ZM65.03,124.68h.82s.22-1.3.22-1.3l1.36-.02.27,1.28.9-.02-1.5-6.18-.86.02-1.2,6.23ZM66.71,119.84l.59,2.83-1.1.02.49-2.84h.02ZM74,119.42c-.08-.65-.53-1.5-1.91-1.33l-1.2.15.76,6.16,1.24-.15c1.6-.2,1.66-1.45,1.59-2.01-.09-.7-.42-1.25-1.15-1.39.55-.33.75-.75.66-1.42ZM71.84,118.86l.17-.02c.75-.09,1.09.19,1.16.77.08.68-.36.96-.97,1.04l-.13.02-.22-1.8ZM73.59,122.31c.1.8-.28,1.14-1.17,1.25l-.27-2.22.13-.02c.79-.1,1.23.22,1.32.98ZM76.82,117.32l-2.22.42,1.15,6.1,2.22-.42-.14-.72-1.37.26-.41-2.15,1.38-.26-.14-.72-1.37.26-.34-1.78,1.38-.26-.14-.72ZM79.67,123.02l.83-.21-1.32-5.27,1.06-.27-.19-.75-2.96.74.19.75,1.06-.27,1.32,5.27ZM81.57,116.87l1.65,5.17.82-.26-1.65-5.17,1.04-.33-.24-.74-2.91.93.24.74,1.04-.33ZM88.02,120.33l-.26-.68-1.31.5-.79-2.05,1.31-.5-.26-.68-1.31.5-.65-1.69,1.3-.5-.26-.68-2.11.81,2.23,5.79,2.11-.81ZM90.95,119.03l.9-.41-2.38-2.17c.56-.47.59-1.26.32-1.84-.43-.94-1.32-1.27-2.17-.88l-1.26.58,2.59,5.64.78-.36-1.19-2.58.18-.09,2.22,2.11ZM88.24,116.34l-.79-1.72.27-.12c.55-.25,1.02-.03,1.23.44.3.66.06,1.06-.71,1.41ZM95.28,116.73l-1.48-2.52,1.21-.71-.37-.63-1.21.71-.92-1.56,1.21-.71-.37-.63-1.95,1.14,3.14,5.35.74-.43ZM98.6,114.79c1.1-.74.51-2.17-.45-3.59-.9-1.33-1.93-2.59-3.16-1.76-1.11.75-.51,2.18.45,3.6.9,1.33,1.93,2.59,3.17,1.75ZM95.42,110.08c.34-.23.82-.1,1.87,1.46.89,1.31,1.38,2.27.87,2.6-.52.35-1.21-.47-1.91-1.51-1.1-1.63-1.2-2.31-.83-2.56ZM101.98,112.33c.66-.52.91-1.21.13-2.21l-2.88-3.67-.68.53,2.88,3.67c.24.31.48.76.07,1.08-.42.33-.8-.01-1.04-.32l-2.88-3.67-.68.53,2.88,3.67c.79,1,1.52.92,2.19.39ZM105.64,109.04l.73-.66-2.92-1.35c.39-.62.18-1.38-.24-1.85-.7-.77-1.64-.81-2.33-.19l-1.03.93,4.17,4.6.64-.58-1.91-2.1.15-.14,2.75,1.34ZM102.25,107.29l-1.27-1.41.22-.2c.45-.41.96-.33,1.3.05.49.54.37.99-.25,1.56ZM108.08,106.63l-3.9-3.78.76-.79-.56-.54-2.13,2.19.56.54.76-.79,3.9,3.78.6-.62ZM110.81,103.57l.56-.66-4.73-4.01-.56.66,1.94,1.65-.8.95-1.94-1.65-.56.65,4.73,4.01.56-.66-2.23-1.89.8-.94,2.23,1.89ZM114.55,98.54l.51-.74-5.91-2.36-.49.71,4.38,4.59.46-.67-.92-.93.77-1.12,1.19.52ZM112.1,98.64l-2.03-2.05h0s2.64,1.14,2.64,1.14l-.62.9ZM116.21,95.88l-4.75-4.14-.44.74,3.42,2.79v.02s-4.1-1.67-4.1-1.67l-.46.77,5.92,2.19.42-.7ZM118.24,92.16l-.65-.34-.65,1.24-1.94-1.01.65-1.24-.65-.34-.65,1.24-1.61-.84.65-1.24-.65-.34-1.05,2,5.5,2.87,1.05-2ZM119.51,89.39l.35-.79-5.67-2.52-.33.75,3.59,1.59v.02s-4.11-.44-4.11-.44l-.35.79,5.67,2.52.33-.75-3.59-1.59v-.02s4.11.44,4.11.44ZM119.15,86.14l-4.39-1.58-.29.81,4.39,1.58c1.2.43,1.77-.02,2.07-.83.29-.79.13-1.51-1.06-1.94l-4.39-1.58-.29.81,4.39,1.58c.36.13.81.39.64.87-.18.5-.69.42-1.05.28ZM116.34,79.68l-.63,2.17,5.96,1.73.63-2.17-.71-.21-.39,1.34-2.11-.61.39-1.34-.7-.2-.39,1.34-1.74-.51.39-1.34-.7-.2ZM110.17,110.57c-11.33,11.33-26.99,18.34-44.28,18.34s-32.94-7.01-44.28-18.34c-7.98-7.98-13.81-18.1-16.57-29.42l-.64.16c6.73,27.65,31.63,48.19,61.33,48.26h.29c29.66-.07,54.53-20.55,61.3-48.13l-.64-.16c-2.77,11.27-8.59,21.35-16.54,29.29ZM114.87,74.14h13.4v-.65h-13.4v.65ZM3.51,74.14h13.4v-.65H3.51v.65Z"/><polyline class="cls-3" points="30.53 79.24 78.84 79.24 78.84 30.93 30.53 79.24"/><path class="cls-6" d="M83.19,28.96v50.29h21.76c1.38-4.17,2.08-8.52,2.08-12.95,0-16.03-9.46-30.66-23.85-37.34"/><path class="cls-4" d="M42.18,99.91c6.71,4.74,14.88,7.52,23.72,7.52,4.53,0,8.88-.73,12.95-2.08v-21.76H28.56c3.04,6.56,7.77,12.19,13.62,16.32"/><path class="cls-3" d="M103.23,83.59h-20.04v20.04c8.85-4.1,15.95-11.2,20.04-20.04"/><path class="cls-5" d="M26.26,77.37l50.71-50.71c-3.59-1-7.3-1.51-11.08-1.51-22.69,0-41.14,18.46-41.14,41.14,0,3.78.51,7.49,1.51,11.08"/></g></g></svg>