<?xml version="1.0" encoding="UTF-8"?><svg id="Layer_1" xmlns="http://www.w3.org/2000/svg" xmlns:xlink="http://www.w3.org/1999/xlink" viewBox="0 0 189.66 308.45"><defs><style>.cls-1{letter-spacing:-.02em;}.cls-2{clip-path:url(#clippath);}.cls-3{letter-spacing:-.02em;}.cls-4{fill:none;}.cls-4,.cls-5,.cls-6,.cls-7,.cls-8,.cls-9,.cls-10{stroke-width:0px;}.cls-11{letter-spacing:-.02em;}.cls-5{fill:#8cc63f;}.cls-6{fill:#fbb040;}.cls-12{letter-spacing:0em;}.cls-13{letter-spacing:-.05em;}.cls-14{letter-spacing:-.05em;}.cls-15{letter-spacing:-.1em;}.cls-16{letter-spacing:0em;}.cls-17{clip-path:url(#clippath-1);}.cls-18{clip-path:url(#clippath-2);}.cls-19{letter-spacing:-.06em;}.cls-20{letter-spacing:0em;}.cls-21{letter-spacing:0em;}.cls-22{font-size:15px;}.cls-22,.cls-7,.cls-23{fill:#231f20;}.cls-22,.cls-23{font-family:DINCondensed-Regular, 'DIN Condensed';opacity:.75;}.cls-24{letter-spacing:0em;}.cls-7{opacity:.77;}.cls-25{letter-spacing:-.02em;}.cls-26{letter-spacing:-.02em;}.cls-8{fill:#c49a6c;}.cls-9{fill:#00c0f3;}.cls-23{font-size:12px;}.cls-10{fill:#fff;}</style><clipPath id="clippath"><rect class="cls-4" x=".04" y=".12" width="189.55" height="299.95"/></clipPath><clipPath id="clippath-1"><rect class="cls-4" width="189.66" height="300.08"/></clipPath><clipPath id="clippath-2"><rect class="cls-4" x="26.96" y="56.33" width="132.08" height="132.6"/></clipPath></defs><g class="cls-2"><g class="cls-17"><rect class="cls-5" x=".04" y=".12" width="189.55" height="299.95"/></g></g><g class="cls-18"><path class="cls-10" d="M47.36,122.59c0,25.12,20.36,45.48,45.48,45.48s45.49-20.36,45.49-45.48-20.36-45.49-45.49-45.49-45.48,20.36-45.48,45.49M138.99,104.59l6.85-2.49-6.05,4.69.75,2.07,12.8-4.65-.74-2.04-6.85,2.49,6.04-4.69-.75-2.07-12.8,4.65.74,2.04ZM32.13,114.48c1.04.66,2.56,1.18,4.67,1.56,1.02.19,2.34.4,3.52.4h0c2.42,0,3.77-.91,4.11-2.77.25-1.37-.29-2.5-1.62-3.35-1.04-.66-2.57-1.17-4.67-1.56-1.02-.19-2.35-.4-3.53-.4-2.42,0-3.76.9-4.1,2.76-.25,1.38.29,2.51,1.62,3.36ZM32.56,111.49c.08-.41.35-.83,1.81-.83.75,0,1.71.11,2.94.34,1.89.35,3.09.66,3.91,1.01,1.16.51,1.22.97,1.17,1.28-.04.21-.15.84-1.88.84-.75,0-1.7-.11-2.99-.35-3.45-.63-5.11-1.4-4.95-2.29ZM46,106.59l-5.67-2.07.02-.06,6.5-.2.88-2.42-6.93.35c0-1.59-1.23-2.77-2.44-3.21-.53-.19-1.05-.29-1.55-.29-1.52,0-2.75.89-3.3,2.38l-1.09,2.98,12.79,4.66.78-2.13ZM38.45,103.84l-3.37-1.23.14-.38c.28-.77.83-1.2,1.54-1.2.22,0,.45.04.68.13.66.24,1.03.56,1.18,1.01.13.41.08.96-.16,1.67ZM43.38,121.02l-6.21-.21.1-2.97-1.99-.07-.1,2.97-3.41-.11.1-2.97-1.99-.07-.18,5.23,13.61.46.08-2.26ZM142.43,123.81l1.99-.07-.1-2.97,4.22-.14.1,2.97,1.99-.07-.1-2.97,3.41-.11.1,2.97,2-.07-.17-5.23-13.61.45.17,5.23ZM133.36,94.12l12.4-6.13-1.35-1.83-7.26,3.88,5.8-5.85-1.41-1.9-9.44,10.15,1.25,1.69ZM104.83,68.37l.06.02.95,6.43,2.5.6-1.15-6.84c1.58-.18,2.61-1.55,2.91-2.8.26-1.1.14-2.12-.34-2.95-.47-.81-1.29-1.39-2.29-1.63l-3.09-.74-3.16,13.25,2.2.53,1.4-5.87ZM106.13,62.93l.4.09c1.06.25,1.57,1.05,1.32,2.08-.24,1-.73,1.43-1.64,1.43-.27,0-.57-.04-.92-.11l.83-3.49ZM141.29,113.72c.33,1.81,1.38,2.72,3.12,2.72.36,0,.75-.04,1.17-.12l9.98-1.82-.41-2.23-9.96,1.82c-.24.04-.46.07-.66.07-.7,0-1.09-.27-1.19-.82-.08-.41.04-.73.35-.97.25-.19.62-.33,1.1-.42l9.96-1.82-.41-2.23-9.97,1.82c-2.48.45-3.49,1.76-3.08,3.99ZM80.65,74.63l-1.51-6.03,2.88-.72-.49-1.94-2.88.72-.83-3.31,2.88-.72-.49-1.93-5.08,1.28,3.32,13.21,2.19-.55ZM137.76,101.54l1.75-.95-1.42-2.61,3.71-2.01,1.42,2.61,1.75-.95-1.42-2.61,3-1.63,1.42,2.61,1.75-.95-2.5-4.6-11.97,6.5,2.5,4.6ZM117.56,79.69l3.22-5.31,1.88,1.14-3.22,5.31,1.94,1.17,7.06-11.64-1.94-1.17-2.8,4.62-1.88-1.14,2.81-4.62-1.94-1.17-7.06,11.64,1.94,1.17ZM96.23,73.5c.13,0,.25.01.37.01,1.97,0,3.05-1.19,3.21-3.53l.68-10.12-2.26-.15-.68,10.1c-.08,1.11-.46,1.65-1.18,1.6-.42-.03-.7-.22-.85-.58-.12-.29-.17-.68-.14-1.17l.68-10.1-2.26-.15-.68,10.12c-.17,2.52.85,3.81,3.11,3.96ZM112.58,77.18l4.35-10.68,2.16.88.79-1.93-6.41-2.61-.79,1.93,2.16.88-4.35,10.68,2.1.85ZM60.99,84.24h0c.67,0,1.32-.24,1.95-.72,2.63-2.01.47-5.45-1.38-7.86-1.63-2.12-3.39-4.08-5.3-4.08-.66,0-1.31.24-1.93.71-2.64,2.02-.49,5.46,1.36,7.87,1.62,2.12,3.39,4.08,5.31,4.08ZM55.59,73.94c.16-.12.31-.18.49-.18.72,0,1.82.98,3.36,3,1.63,2.12,3.16,4.39,2.23,5.1-.14.11-.3.16-.47.16-1,0-2.46-1.75-3.47-3.07-2.13-2.78-2.85-4.47-2.13-5.02ZM53.04,93.18l-4.91-3.81,1.35-1.74,4.91,3.81,1.39-1.79-10.76-8.34-1.39,1.79,4.27,3.31-1.35,1.74-4.27-3.31-1.39,1.79,10.76,8.34,1.39-1.79ZM38.78,94.27l10.11,5.55,1.09-1.98-10.11-5.55,1.12-2.04-1.83-1-3.33,6.07,1.83,1,1.12-2.04ZM126.72,86.46l2.3-1.55,1.77,1.79-1.57,2.28,1.67,1.68,7.52-11.76-1.53-1.55-11.69,7.54,1.54,1.55ZM134.62,81.15l-2.72,3.96-1.27-1.28,3.99-2.69ZM87.6,73.64h0c.13,0,.27,0,.41-.02,1.39-.14,2.32-.97,2.77-2.49.35-1.18.42-2.79.21-4.92-.36-3.64-1.12-7-4.37-6.68-3.31.32-3.3,4.38-3,7.41.34,3.48,1.06,6.7,3.97,6.7ZM86.83,61.61s.07,0,.11,0c.53,0,1.29.46,1.68,4.43.26,2.66.37,5.39-.81,5.51-1.21.11-1.6-2.38-1.81-4.55-.34-3.49-.06-5.3.84-5.39ZM68.66,79.41l-3.41-6.44,5.48,5.34,1.95-1.03-6.38-12.03-1.92,1.02,3.41,6.44-5.48-5.34-1.95,1.03,6.38,12.03,1.92-1.02ZM37.44,141.02l6.25-.79-.25-.82-4.36.67v-.02s4.01-1.81,4.01-1.81l-.26-.86-4.34.74v-.02s4-1.83,4-1.83l-.26-.86-5.63,2.82.24.78,4.38-.68v.02s-4.01,1.87-4.01,1.87l.24.78ZM42.14,144.65c1.49-.6,2.94-1.34,2.39-2.72-.5-1.24-2.02-.96-3.61-.33-1.49.6-2.94,1.34-2.39,2.73.5,1.24,2.02.95,3.61.32ZM41.13,142.49c1.82-.73,2.51-.69,2.68-.27.15.38-.08.82-1.82,1.52-1.47.59-2.5.87-2.73.3-.23-.58.71-1.08,1.88-1.55ZM41.11,149.68l2.12-2.43c.48.55,1.28.56,1.85.29.93-.45,1.24-1.34.83-2.19l-.61-1.25-5.58,2.71.38.77,2.56-1.24.09.18-2.06,2.26.43.89ZM45.01,145.2l.13.27c.27.55.05,1.01-.41,1.24-.65.32-1.06.08-1.43-.68l1.71-.83ZM43.19,153.33l2.06-3.02,3.26-.17-.46-.8-3.11.23v-.02s2.42-1.41,2.42-1.41l-.43-.74-5.37,3.11.43.74,2.68-1.55h0s-1.97,2.8-1.97,2.8l.48.83ZM49.38,151.45l-.47-.72-5.2,3.39.47.72,5.19-3.39ZM46.63,158.27l5-3.67-.48-.66-3.17,2.32h0s2.42-3.36,2.42-3.36l-.51-.69-5,3.67.48.66,3.17-2.32h0s-2.42,3.36-2.42,3.36l.51.69ZM51.55,159.73l.55-.46-1.12-1.33-.59.5.57.67c-1.01.81-1.74,1.27-2.12.82-.4-.48.33-1.25,1.29-2.06,1.5-1.27,2.17-1.45,2.45-1.11.23.28.1.64-.29,1.07l.78.44c.49-.67.66-1.35.1-2.01-.87-1.02-2.22-.27-3.53.84-1.22,1.03-2.37,2.2-1.4,3.34.85,1,2.17.26,3.31-.71ZM56.35,160.95l.79.76.54-.56-2.19-2.12-.54.56.79.76-3.78,3.9.62.6,3.78-3.9ZM54.84,167.06c1.01.87,2.23-.09,3.34-1.39,1.04-1.22,1.98-2.55.86-3.52-1.02-.87-2.24.08-3.35,1.38-1.04,1.22-1.99,2.55-.85,3.52ZM56.29,164.23c1.28-1.49,1.91-1.77,2.25-1.48.31.27.31.77-.91,2.19-1.03,1.2-1.82,1.93-2.28,1.53-.47-.41.13-1.29.95-2.24ZM58.11,169.67c1.06.78,2.17-.25,3.06-1.45l.43-.58-1.4-1.03-.46.62.7.52c-.79,1.02-1.41,1.63-1.88,1.29-.5-.37.04-1.3.78-2.31,1.17-1.58,1.78-1.91,2.13-1.64.29.22.25.6-.03,1.11l.86.25c.32-.77.33-1.47-.36-1.98-1.08-.8-2.22.24-3.24,1.62-.95,1.29-1.8,2.69-.6,3.57ZM63.84,169.88l.4-.62-1.18-.76.98-1.52,1.18.76.4-.62-1.9-1.23-3.37,5.21,1.9,1.23.4-.61-1.17-.76,1.19-1.84,1.17.76ZM67.18,168.92l.95.54.38-.68-2.65-1.51-.38.68.95.54-2.68,4.72.75.43,2.68-4.72ZM68.94,175.89l2.69-5.59-.77-.37-1.1,2.3-1.12-.54,1.1-2.3-.77-.37-2.69,5.59.77.37,1.27-2.64,1.12.54-1.27,2.64.77.37ZM73.22,174.49l.28-.68-1.3-.52.68-1.68,1.3.52.28-.68-2.09-.85-2.33,5.75,2.09.85.28-.68-1.3-.53.82-2.03,1.3.53ZM77.31,174.23c.33-.98-.09-1.82-.98-2.12l-1.32-.44-1.96,5.89.82.27.9-2.7.19.06.18,3.06.94.31-.25-3.21c.73.04,1.29-.52,1.49-1.12ZM76.48,173.89c-.23.69-.68.81-1.48.55l.6-1.8.28.09c.58.19.76.67.6,1.16ZM82.45,174.5l.16-.71-2.2-.49-1.36,6.05.84.19.64-2.85,1.37.31.16-.71-1.37-.31.4-1.77,1.37.31ZM83.62,180.38c1.32.21,1.85-1.24,2.12-2.93.25-1.58.36-3.21-1.11-3.44-1.32-.21-1.86,1.24-2.13,2.93-.25,1.58-.36,3.21,1.12,3.45ZM83.37,177.21c.31-1.94.7-2.51,1.14-2.44.41.06.67.49.37,2.35-.25,1.56-.54,2.59-1.14,2.5-.62-.1-.57-1.16-.37-2.41ZM89.72,176.41c.09-1.03-.52-1.75-1.45-1.83l-1.39-.12-.53,6.18.86.08.25-2.83.2.02.89,2.93.98.08-1-3.07c.72-.13,1.14-.81,1.19-1.44ZM88.83,176.28c-.06.72-.47.95-1.31.88l.16-1.89.29.03c.6.05.9.48.85.99ZM91.99,181h.82s.22-1.3.22-1.3l1.36-.02.27,1.28.9-.02-1.5-6.18-.86.02-1.2,6.23ZM93.67,176.17l.59,2.83-1.1.02.49-2.84h.02ZM100.97,175.74c-.08-.65-.53-1.5-1.91-1.33l-1.2.15.76,6.16,1.24-.15c1.6-.2,1.66-1.45,1.59-2.01-.09-.7-.42-1.25-1.15-1.39.55-.33.75-.75.66-1.42ZM98.8,175.19l.17-.02c.75-.09,1.09.19,1.16.77.08.68-.36.96-.97,1.04l-.13.02-.22-1.8ZM100.55,178.64c.1.8-.28,1.14-1.17,1.25l-.27-2.22.13-.02c.79-.1,1.23.22,1.32.98ZM103.78,173.65l-2.22.42,1.15,6.1,2.22-.42-.14-.72-1.37.26-.41-2.15,1.38-.26-.14-.72-1.37.26-.34-1.78,1.38-.26-.14-.72ZM106.63,179.35l.83-.21-1.32-5.27,1.06-.27-.19-.75-2.96.74.19.75,1.06-.27,1.32,5.27ZM108.53,173.2l1.65,5.17.82-.26-1.65-5.17,1.04-.33-.24-.74-2.91.93.24.74,1.04-.33ZM114.99,176.66l-.26-.68-1.31.5-.79-2.05,1.31-.5-.26-.68-1.31.5-.65-1.69,1.3-.5-.26-.68-2.11.81,2.23,5.79,2.11-.81ZM117.91,175.35l.9-.41-2.38-2.17c.56-.47.59-1.26.32-1.84-.43-.94-1.32-1.27-2.17-.88l-1.26.58,2.59,5.64.78-.36-1.19-2.58.18-.09,2.22,2.11ZM115.2,172.67l-.79-1.72.27-.12c.55-.25,1.02-.03,1.23.44.3.66.06,1.06-.71,1.41ZM122.24,173.05l-1.48-2.52,1.21-.71-.37-.63-1.21.71-.92-1.56,1.21-.71-.37-.63-1.95,1.14,3.14,5.35.74-.43ZM125.56,171.12c1.1-.74.51-2.17-.45-3.59-.9-1.33-1.93-2.59-3.16-1.76-1.11.75-.51,2.18.45,3.6.9,1.33,1.93,2.59,3.17,1.75ZM122.38,166.41c.34-.23.82-.1,1.87,1.46.89,1.31,1.38,2.27.87,2.6-.52.35-1.21-.47-1.91-1.51-1.1-1.63-1.2-2.31-.83-2.56ZM128.94,168.65c.66-.52.91-1.21.13-2.21l-2.88-3.67-.68.53,2.88,3.67c.24.31.48.76.07,1.08-.42.33-.8-.01-1.04-.32l-2.88-3.67-.68.53,2.88,3.67c.79,1,1.52.92,2.19.39ZM132.61,165.36l.73-.66-2.92-1.35c.39-.62.18-1.38-.24-1.85-.7-.77-1.64-.81-2.33-.19l-1.03.93,4.17,4.6.64-.58-1.91-2.1.15-.14,2.75,1.34ZM129.21,163.61l-1.27-1.41.22-.2c.45-.41.96-.33,1.3.05.49.54.37.99-.25,1.56ZM135.04,162.96l-3.9-3.78.76-.79-.56-.54-2.13,2.19.56.54.76-.79,3.9,3.78.6-.62ZM137.77,159.89l.56-.66-4.73-4.01-.56.66,1.94,1.65-.8.95-1.94-1.65-.56.65,4.73,4.01.56-.66-2.23-1.89.8-.94,2.23,1.89ZM141.52,154.87l.51-.74-5.91-2.36-.49.71,4.38,4.59.46-.67-.92-.93.77-1.12,1.19.52ZM139.06,154.96l-2.03-2.05h0s2.64,1.14,2.64,1.14l-.62.9ZM143.18,152.21l-4.75-4.14-.44.74,3.42,2.79v.02s-4.1-1.67-4.1-1.67l-.46.77,5.92,2.19.42-.7ZM145.2,148.49l-.65-.34-.65,1.24-1.94-1.01.65-1.24-.65-.34-.65,1.24-1.61-.84.65-1.24-.65-.34-1.05,2,5.5,2.87,1.05-2ZM146.47,145.72l.35-.79-5.67-2.52-.33.75,3.59,1.59v.02s-4.11-.44-4.11-.44l-.35.79,5.67,2.52.33-.75-3.59-1.59v-.02s4.11.44,4.11.44ZM146.12,142.47l-4.39-1.58-.29.81,4.39,1.58c1.2.43,1.77-.02,2.07-.83.29-.79.13-1.51-1.06-1.94l-4.39-1.58-.29.81,4.39,1.58c.36.13.81.39.64.87-.18.5-.69.42-1.05.28ZM143.3,136l-.63,2.17,5.96,1.73.63-2.17-.71-.21-.39,1.34-2.11-.61.39-1.34-.7-.2-.39,1.34-1.74-.51.39-1.34-.7-.2ZM137.14,166.9c-11.33,11.33-26.99,18.34-44.28,18.34s-32.94-7.01-44.28-18.34c-7.98-7.98-13.81-18.1-16.57-29.42l-.64.16c6.73,27.65,31.63,48.19,61.33,48.26h.29c29.66-.07,54.53-20.55,61.3-48.13l-.64-.16c-2.77,11.27-8.59,21.35-16.54,29.29ZM141.84,130.47h13.4v-.65h-13.4v.65ZM30.48,130.47h13.4v-.65h-13.4v.65Z"/><polyline class="cls-5" points="57.5 135.57 105.81 135.57 105.81 87.26 57.5 135.57"/><path class="cls-9" d="M110.15,85.28v50.29h21.76c1.38-4.17,2.08-8.52,2.08-12.95,0-16.03-9.46-30.66-23.85-37.34"/><path class="cls-8" d="M69.14,156.24c6.71,4.74,14.88,7.52,23.72,7.52,4.53,0,8.88-.73,12.95-2.08v-21.76h-50.29c3.04,6.56,7.77,12.19,13.62,16.32"/><path class="cls-5" d="M130.2,139.92h-20.04v20.04c8.85-4.1,15.95-11.2,20.04-20.04"/><path class="cls-6" d="M53.23,133.7l50.71-50.71c-3.59-1-7.3-1.51-11.08-1.51-22.69,0-41.14,18.46-41.14,41.14,0,3.78.51,7.49,1.51,11.08"/></g><text class="cls-22" transform="translate(26.92 216.74)"><tspan class="cls-3" x="0" y="0">F</tspan><tspan x="5.54" y="0">O</tspan><tspan class="cls-26" x="12.46" y="0">R</tspan><tspan x="18.91" y="0">TH ON </tspan><tspan class="cls-3" x="52.78" y="0">F</tspan><tspan x="58.32" y="0">OU</tspan><tspan class="cls-25" x="72.06" y="0">R</tspan><tspan class="cls-21" x="78.51" y="0">TH </tspan><tspan class="cls-14" x="94.65" y="0">A</tspan><tspan x="100.15" y="0">VENUE</tspan><tspan x="50.39" y="18">(</tspan><tspan class="cls-1" x="54.25" y="18">F</tspan><tspan class="cls-24" x="59.78" y="18">O</tspan><tspan class="cls-13" x="66.71" y="18">F</tspan><tspan class="cls-12" x="71.72" y="18">A)</tspan></text><rect class="cls-7" x="26.84" y="197.46" width="132.33" height="3.93"/><text class="cls-23" transform="translate(71.56 257.19)"><tspan x="0" y="0">4</tspan><tspan class="cls-11" x="5.02" y="0">F</tspan><tspan x="9.44" y="0">O</tspan><tspan class="cls-19" x="14.99" y="0">F</tspan><tspan class="cls-16" x="19" y="0">A.ORG</tspan><tspan x="-13.23" y="14.4">IN</tspan><tspan class="cls-11" x="-4.75" y="14.4">F</tspan><tspan x="-.32" y="14.4">O@4</tspan><tspan class="cls-11" x="18.25" y="14.4">F</tspan><tspan x="22.67" y="14.4">O</tspan><tspan class="cls-19" x="28.22" y="14.4">F</tspan><tspan x="32.23" y="14.4">A.ORG</tspan><tspan x="-22.92" y="28.8">IG: @</tspan><tspan class="cls-11" x="-1.49" y="28.8">F</tspan><tspan x="2.94" y="28.8">O</tspan><tspan class="cls-19" x="8.48" y="28.8">F</tspan><tspan x="12.49" y="28.8">A_BROOK</tspan><tspan class="cls-15" x="51.3" y="28.8">L</tspan><tspan class="cls-20" x="55.01" y="28.8">YN</tspan></text><rect class="cls-7" x="26.84" y="240.67" width="132.33" height="3.93"/></svg>